<?xml version="1.0" encoding="UTF-8" standalone="no"?>
<svg
   width="13"
   height="22"
   viewBox="0 0 13 22"
   fill="none"
   version="1.1"
   id="svg4"
   sodipodi:docname="fb2.svg"
   inkscape:version="1.2 (dc2aedaf03, 2022-05-15)"
   xmlns:inkscape="http://www.inkscape.org/namespaces/inkscape"
   xmlns:sodipodi="http://sodipodi.sourceforge.net/DTD/sodipodi-0.dtd"
   xmlns="http://www.w3.org/2000/svg"
   xmlns:svg="http://www.w3.org/2000/svg">
  <defs
     id="defs8" />
  <sodipodi:namedview
     id="namedview6"
     pagecolor="#ffffff"
     bordercolor="#000000"
     borderopacity="0.25"
     inkscape:showpageshadow="2"
     inkscape:pageopacity="0.0"
     inkscape:pagecheckerboard="0"
     inkscape:deskcolor="#d1d1d1"
     showgrid="false"
     inkscape:zoom="9.5113636"
     inkscape:cx="-2.8387097"
     inkscape:cy="11.775388"
     inkscape:window-width="1920"
     inkscape:window-height="1017"
     inkscape:window-x="-8"
     inkscape:window-y="-8"
     inkscape:window-maximized="1"
     inkscape:current-layer="svg4" />
  <path
     style="color:#000000;fill:#383638;stroke-linecap:round;stroke-linejoin:round;-inkscape-stroke:none"
     d="M 9,0 C 7.4090909,0 5.882758,0.63285495 4.7578125,1.7578125 3.632855,2.882758 3,4.4090909 3,6 V 8 H 1 A 1.0001,1.0001 0 0 0 0,9 v 4 a 1.0001,1.0001 0 0 0 1,1 h 2 v 7 a 1.0001,1.0001 0 0 0 1,1 h 4 a 1.0001,1.0001 0 0 0 1,-1 v -7 h 2 a 1.0001,1.0001 0 0 0 0.970703,-0.757812 l 1,-4.0000005 A 1.0001,1.0001 0 0 0 12,8 H 9 V 6 h 3 A 1.0001,1.0001 0 0 0 13,5 V 1 A 1.0001,1.0001 0 0 0 12,0 Z m 0,2 h 2 V 4 H 9 C 8.4699438,4 7.9607273,4.2111677 7.5859375,4.5859375 7.2111677,4.9607273 7,5.4699438 7,6 v 3 a 1.0001,1.0001 0 0 0 1,1 h 2.71875 l -0.5,2 H 8 a 1.0001,1.0001 0 0 0 -1,1 v 7 H 5 V 13 A 1.0001,1.0001 0 0 0 4,12 H 2 V 10 H 4 A 1.0001,1.0001 0 0 0 5,9 V 6 C 5,4.9387517 5.4214544,3.9222876 6.171875,3.171875 6.9222876,2.4214544 7.9387517,2 9,2 Z"
     id="path2" />
</svg>
