<?xml version="1.0" encoding="UTF-8" standalone="no"?>
<svg
   width="24"
   height="25"
   viewBox="0 0 24 25"
   fill="none"
   version="1.1"
   id="svg128"
   sodipodi:docname="instagram.svg"
   inkscape:version="1.2 (dc2aedaf03, 2022-05-15)"
   xmlns:inkscape="http://www.inkscape.org/namespaces/inkscape"
   xmlns:sodipodi="http://sodipodi.sourceforge.net/DTD/sodipodi-0.dtd"
   xmlns="http://www.w3.org/2000/svg"
   xmlns:svg="http://www.w3.org/2000/svg">
  <defs
     id="defs132" />
  <sodipodi:namedview
     id="namedview130"
     pagecolor="#ffffff"
     bordercolor="#000000"
     borderopacity="0.25"
     inkscape:showpageshadow="2"
     inkscape:pageopacity="0.0"
     inkscape:pagecheckerboard="0"
     inkscape:deskcolor="#d1d1d1"
     showgrid="false"
     inkscape:zoom="5.9184838"
     inkscape:cx="35.651023"
     inkscape:cy="18.923766"
     inkscape:window-width="1920"
     inkscape:window-height="1017"
     inkscape:window-x="-8"
     inkscape:window-y="-8"
     inkscape:window-maximized="1"
     inkscape:current-layer="svg128" />
  <path
     style="color:#000000;fill:#383638;stroke-linecap:round;stroke-linejoin:round;-inkscape-stroke:none"
     d="m 7,1.0253906 c -3.3018585,0 -6,2.6981416 -6,6 V 17.025391 c 0,3.301842 2.6981367,6 6,6 h 10 c 3.301847,0 6,-2.698153 6,-6 V 7.0253906 c 0,-3.3018633 -2.698158,-6 -6,-6 z m 0,2 h 10 c 2.220952,0 4,1.7790288 4,4 V 17.025391 c 0,2.220947 -1.779053,4 -4,4 H 7 c -2.2209712,0 -4,-1.779048 -4,-4 V 7.0253906 c 0,-2.220976 1.779024,-4 4,-4 z"
     id="path122" />
  <path
     style="color:#000000;fill:#383638;stroke-linecap:round;stroke-linejoin:round;-inkscape-stroke:none"
     d="M 12.777344,7.0371094 C 11.737125,6.8828701 10.673634,7.0605987 9.7402344,7.5449219 8.8068952,8.0292394 8.0489429,8.7951073 7.5761719,9.734375 c -0.4727797,0.939285 -0.6358163,2.004726 -0.46875,3.042969 0.1670593,1.038152 0.6568036,1.996672 1.4003906,2.740234 0.7435636,0.743539 1.7021065,1.233285 2.7402345,1.400391 1.038142,0.166962 2.103623,0.0041 3.042969,-0.46875 0.939319,-0.472723 1.70514,-1.230683 2.189453,-2.164063 0.484307,-0.933369 0.662044,-1.996859 0.507812,-3.037109 C 16.830924,10.187043 16.336637,9.2057149 15.578125,8.4472656 14.819707,7.6887974 13.838349,7.1944415 12.777344,7.0371094 Z m -0.294922,1.9765625 c 0.636793,0.094428 1.22646,0.3924457 1.681641,0.8476562 0.455287,0.4552499 0.753213,1.0448459 0.847656,1.6816409 0.09257,0.624348 -0.01399,1.260083 -0.304688,1.820312 -0.290686,0.560219 -0.750774,1.015151 -1.314453,1.298828 -0.563652,0.283739 -1.202915,0.381488 -1.826172,0.28125 C 10.943336,14.843065 10.36815,14.549776 9.921875,14.103516 9.4756232,13.657279 9.1822917,13.08203 9.0820313,12.458984 8.9817578,11.835829 9.0795417,11.196526 9.3632813,10.632813 9.6470295,10.069082 10.10193,9.6090411 10.662109,9.3183594 11.222308,9.0276833 11.858042,8.9210914 12.482422,9.0136719 Z"
     id="path124" />
  <path
     style="color:#000000;fill:#383638;stroke-linecap:round;stroke-linejoin:round;-inkscape-stroke:none"
     d="m 17.5,5.5253906 a 1,1 0 0 0 -1,1 1,1 0 0 0 1,1 h 0.0098 a 1,1 0 0 0 1,-1 1,1 0 0 0 -1,-1 z"
     id="path126" />
</svg>
