<?xml version="1.0" encoding="UTF-8" standalone="no"?>
<svg
   width="24"
   height="25"
   viewBox="0 0 24 25"
   fill="none"
   version="1.1"
   id="svg186"
   sodipodi:docname="mail.svg"
   inkscape:version="1.2 (dc2aedaf03, 2022-05-15)"
   xmlns:inkscape="http://www.inkscape.org/namespaces/inkscape"
   xmlns:sodipodi="http://sodipodi.sourceforge.net/DTD/sodipodi-0.dtd"
   xmlns="http://www.w3.org/2000/svg"
   xmlns:svg="http://www.w3.org/2000/svg">
  <defs
     id="defs190" />
  <sodipodi:namedview
     id="namedview188"
     pagecolor="#ffffff"
     bordercolor="#000000"
     borderopacity="0.25"
     inkscape:showpageshadow="2"
     inkscape:pageopacity="0.0"
     inkscape:pagecheckerboard="0"
     inkscape:deskcolor="#d1d1d1"
     showgrid="false"
     inkscape:zoom="5.9184838"
     inkscape:cx="16.051408"
     inkscape:cy="14.530749"
     inkscape:window-width="1920"
     inkscape:window-height="1017"
     inkscape:window-x="-8"
     inkscape:window-y="-8"
     inkscape:window-maximized="1"
     inkscape:current-layer="svg186" />
  <path
     style="color:#000000;fill:#383638;stroke-linecap:round;stroke-linejoin:round;-inkscape-stroke:none"
     d="m 4,3.0253906 c -1.6454529,0 -3,1.3545471 -3,3 V 18.025391 c 0,1.645453 1.3545471,3 3,3 h 16 c 1.645453,0 3,-1.354547 3,-3 V 6.0253906 c 0,-1.6454529 -1.354547,-3 -3,-3 z m 0,2 h 16 c 0.554545,0 1,0.4454551 1,1 V 18.025391 c 0,0.554545 -0.445455,1 -1,1 H 4 c -0.5545449,0 -1,-0.445455 -1,-1 V 6.0253906 c 0,-0.5545449 0.4454551,-1 1,-1 z"
     id="path182" />
  <path
     style="color:#000000;fill:#383638;stroke-linecap:round;stroke-linejoin:round;-inkscape-stroke:none"
     d="M 1.8261719,5.0410156 A 1,1 0 0 0 1.1816406,5.4511719 1,1 0 0 0 1.4257812,6.84375 l 9.9999998,7 a 1.0001,1.0001 0 0 0 1.148438,0 l 10,-7 A 1,1 0 0 0 22.818359,5.4511719 1,1 0 0 0 21.425781,5.2070312 L 12,11.804688 2.5742188,5.2070312 A 1,1 0 0 0 1.8261719,5.0410156 Z"
     id="path184" />
</svg>
