<?xml version="1.0" encoding="UTF-8" standalone="no"?>
<svg
   width="24"
   height="25"
   viewBox="0 0 24 25"
   fill="none"
   version="1.1"
   id="svg207"
   sodipodi:docname="twitter.svg"
   inkscape:version="1.2 (dc2aedaf03, 2022-05-15)"
   xmlns:inkscape="http://www.inkscape.org/namespaces/inkscape"
   xmlns:sodipodi="http://sodipodi.sourceforge.net/DTD/sodipodi-0.dtd"
   xmlns="http://www.w3.org/2000/svg"
   xmlns:svg="http://www.w3.org/2000/svg">
  <defs
     id="defs211" />
  <sodipodi:namedview
     id="namedview209"
     pagecolor="#ffffff"
     bordercolor="#000000"
     borderopacity="0.25"
     inkscape:showpageshadow="2"
     inkscape:pageopacity="0.0"
     inkscape:pagecheckerboard="0"
     inkscape:deskcolor="#d1d1d1"
     showgrid="false"
     inkscape:zoom="5.9184838"
     inkscape:cx="30.582157"
     inkscape:cy="11.658391"
     inkscape:window-width="1920"
     inkscape:window-height="1017"
     inkscape:window-x="-8"
     inkscape:window-y="-8"
     inkscape:window-maximized="1"
     inkscape:current-layer="svg207" />
  <path
     style="color:#000000;fill:#383638;stroke-linecap:round;stroke-linejoin:round;-inkscape-stroke:none"
     d="M 16.152344,2.0253906 C 15.598488,2.0585049 15.049734,2.1748641 14.525391,2.375 13.476728,2.775263 12.575749,3.4891817 11.945313,4.4179687 11.334988,5.3169634 11.022418,6.3779823 11.015625,7.4628906 9.7557962,7.369156 8.514891,7.0981439 7.3808594,6.5273437 5.9578677,5.811113 4.7339261,4.7548793 3.8183594,3.4511719 A 1.0001,1.0001 0 0 0 2.0859375,3.6191406 c 0,0 -1.09609303,2.4347924 -0.9589844,5.4511719 C 1.2450663,11.668793 2.5342459,14.727 5.921875,16.90625 4.3875559,17.624757 2.7482361,18.093423 1.0390625,18.025391 a 1.0001,1.0001 0 0 0 -0.52539063,1.875 C 5.2885593,22.553106 10.65576,22.575829 14.845703,20.345703 19.035646,18.115578 22,13.594206 22,7.5253906 a 1.0001,1.0001 0 0 0 0,-0.00391 C 21.999417,7.3410115 21.965558,7.1636873 21.947266,6.984375 22.904302,5.9164702 23.630073,4.6603023 23.970703,3.2617188 A 1.0001,1.0001 0 0 0 22.423828,2.2089844 C 21.687024,2.7287099 20.855921,3.083096 20.007812,3.3847656 19.364738,2.8333861 18.63926,2.3870474 17.810547,2.1796875 17.266093,2.0434609 16.706199,1.9922764 16.152344,2.0253906 Z m 1.171875,2.09375 c 0.691678,0.1730711 1.313296,0.5537708 1.78125,1.0917969 a 1.0001,1.0001 0 0 0 1.042968,0.3027344 C 20.39423,5.4396583 20.595938,5.2672844 20.835937,5.1777344 20.633306,5.449625 20.462056,5.7444283 20.21875,5.984375 A 1.0001,1.0001 0 0 0 19.9375,6.8828125 C 19.978184,7.0956375 19.9993,7.3127391 20,7.5292969 19.9987,12.958163 17.463433,16.685704 13.904297,18.580078 11.3148,19.958355 8.1572976,20.311682 5.0019531,19.517578 6.2595496,19.15035 7.4648551,18.598614 8.5625,17.853516 A 1.0001,1.0001 0 0 0 8.40625,16.111328 C 4.2108569,14.246709 3.235938,11.464064 3.1230469,8.9804688 3.0706261,7.8272168 3.2576872,6.8117639 3.4511719,6.0039062 c 0.8947155,0.913132 1.8797077,1.7319272 3.0292968,2.3105469 1.7175282,0.8644956 3.6227143,1.290067 5.5449223,1.2402344 a 1.0001,1.0001 0 0 0 0.974609,-1 v -1 a 1.0001,1.0001 0 0 0 0,-0.011719 c -0.0096,-0.712964 0.199129,-1.412054 0.599609,-2.0019531 0.400363,-0.5898314 0.972537,-1.0426186 1.638672,-1.296875 0.666112,-0.2542476 1.394247,-0.2980663 2.085938,-0.125 z"
     id="path205" />
</svg>
